<?xml version="1.0" standalone="no"?><!DOCTYPE svg PUBLIC "-//W3C//DTD SVG 1.1//EN" "http://www.w3.org/Graphics/SVG/1.1/DTD/svg11.dtd"><svg t="1581776389100" class="icon" viewBox="0 0 1037 1024" version="1.1" xmlns="http://www.w3.org/2000/svg" p-id="7015" xmlns:xlink="http://www.w3.org/1999/xlink" width="202.5390625" height="200"><defs><style type="text/css"></style></defs><path d="M383.667521 1021.120401c-43.295336-1.754268-86.697227-2.144105-129.85482-5.605861-50.668459-4.067303-101.627997-6.809159-151.464804-17.953309-9.844692-2.20388-25.71627-1.442398-25.677287-14.119909 0.028588-11.271497 15.791011-11.487207 25.100328-13.423399 26.345208-5.475915 53.023077-9.589999 79.97903-11.079177 3.544921-0.200117 6.801362-0.797867 9.808307-2.666488 3.638482 2.866604 3.807411 6.887126 3.690461 11.009007-0.649729 7.240579-4.901555 9.959045-11.848457 9.761527-5.831967-0.16893-11.679527-0.025989-17.4959-0.005198-6.54407-0.686114-12.591746 1.507371-17.043689 2.954967 9.460053-4.267419 21.170767-2.760048 32.725546-2.921181 6.091858-0.257293 12.248689 0.566564 17.779182 2.570328 15.081507 5.462921 29.666622 12.739884 46.460815 8.789533 2.209078 0.228705 4.244029 1.346238 6.434915 1.369628-2.305238-0.667921-4.579289-1.185106-6.814357-1.881615-5.948918-2.333826-5.366761-5.561679-1.55675-9.608191 6.793565-7.196397 15.214052-10.702335 24.897612-11.565175 2.081731 0.033786 4.168661 0.077967 5.130259 0.540575-4.153067-0.917417-9.246942-1.512569-14.177085 1.237084-7.786351 1.767263-13.592329 6.564861-18.530268 12.464399-3.321414 3.960747-6.757181 7.516064-12.100552 8.540037-6.323162 0.38464-11.14415-1.873818-13.878209-7.840929-1.408612-8.514048-6.850742-17.124255 0.519783-25.458977 15.349196-5.379755 31.621007-2.993951 47.300265-4.21804 21.329301-1.660707 42.869114-2.954967 64.359547-3.71645 48.667294-1.723081 97.412556-0.875835 145.98369-3.087511 35.345253-1.611328 70.721692-2.915983 105.869428-1.242282 42.668997 2.027154 85.343192 0.062374 127.884842 2.393601 35.189318 1.930994 70.456603 2.235067 105.560157 4.989918 54.239369 4.262222 108.626877 7.635614 162.164539 18.150827 7.531658 1.481382 14.78783 4.52991 22.028409 7.227584 3.630685 1.356634 7.516064 3.578707 7.601828 7.93449 0.093561 4.86517-4.730026 5.795582-8.157996 7.09504-15.744231 5.951517-32.249944 8.799928-48.825828 11.201326-50.143478 7.250975-100.575436 10.842676-151.171126 13.400009-33.88986 1.715284-67.745934 4.062105-101.685174 4.782005-16.960523 2.666487-34.037998 0.511986-51.040104 1.211095-14.943765 0.748488-29.981091-1.535959-44.862482 1.333243h-119.199266c-14.837209-2.874401-29.830354-0.57436-44.735135-1.333243-17.048887-0.712103-34.162746 1.481382-51.159654-1.231886" fill="#E0E6EB" p-id="7016"></path><path d="M28.338576 152.781102c-19.122821 5.587669-19.10203 5.579872-25.843617-15.081507-0.345656-1.062956-1.515168-1.860824-2.302639-2.78084v-15.541515c32.832101-1.528162 65.6694-4.563696 98.472913 0.408029 6.609042 5.598064 7.102836 12.396828 3.93216 19.915491-4.693642 4.945736-11.110364 3.370794-16.840974 4.309002-13.862616 2.268853-27.618677 5.078281-41.340951 8.020254-5.345969 0.363848-10.733522 0.041583-16.076892 0.753685" fill="#E6B801" p-id="7017"></path><path d="M642.833988 1021.115204l51.827575 0.02339c-0.018192 0.849845-0.028588 1.697092-0.025989 2.546937h-51.824977c-0.852444-0.576959-1.130528-1.15132-0.842048-1.720482 0.285881-0.566564 0.576959-0.847246 0.865439-0.847246" fill="#F2F5F7" p-id="7018"></path><path d="M383.667521 1021.120401l51.84057-0.018192c0.852444 0.571761 1.138325 1.143523 0.857642 1.717883-0.283282 0.57436-0.566564 0.86284-0.852444 0.86284h-51.822378c0.007797-0.852444 0-1.707488-0.02339-2.562531" fill="#EFF2F5" p-id="7019"></path><path d="M435.513289 1023.685531c0.002599-0.86284 0-1.723081-0.005198-2.583322 14.650087 1.429404 29.653627-3.069319 44.054219 2.583322h-44.049021zM642.833988 1021.115204c-0.012995 0.857642-0.020791 1.715284-0.02599 2.570327H598.764175c14.410987-5.650043 29.411928-1.177309 44.072411-2.567728" fill="#E7ECF0" p-id="7020"></path><path d="M402.296548 622.329791c-59.504773 39.191648-122.081463 71.620917-192.228795 87.396335-3.222655-3.318815-3.37859-7.529059-3.443564-11.762692 0.161133-5.353766-0.189721-10.660752-1.803647-15.8196-0.597751-5.816373-1.959582-11.554779-1.907604-17.438724 1.049962-4.930143 1.585339-9.847291-0.356052-14.717659a334.885874 334.885874 0 0 0-2.905587-11.549581c-1.216293-6.307568-0.969396-12.687906-1.060358-19.05525 0.244298-6.4713 0.343057-12.937402-0.270287-19.395707-2.411794-7.749966-2.378008-15.720841-2.188287-23.707309 0.488596-7.09504-0.176726-14.041941-2.793834-20.728951-2.546937-6.928709-2.432585-14.161491-2.502756-21.373482 0.254694-6.289376 0.345656-12.578752-0.174128-18.865529-1.723081-7.269167-2.6353-14.650087-3.014742-22.101178 0.943406-7.659004 1.837433-15.323207-1.073352-22.808084-1.892011-6.130842-3.550119-12.292871-2.502756-18.808353a25.183493 25.183493 0 0 1 0.795269-3.555316c1.814043-4.605279 1.255276-9.148183-0.473003-13.654703-0.818658-2.424788-1.185106-4.958731-1.995967-7.388717-2.188287-8.082628-1.827038-16.341982-1.780258-24.577945-0.176726-6.019089 0.930412-12.149931-1.611327-17.958507-3.038132-7.139221-3.872384-14.423982-1.429404-21.914057 1.013577-4.756016-0.657526-9.189766-1.715284-13.696286-1.94139-8.898687-3.487745-17.838957-3.118699-27.000134 0.207913-4.176457 0.145539-8.358113 0.135144-12.537169a35.503787 35.503787 0 0 0-1.671103-12.274679c-1.263073-6.32836-1.00578-12.734687-1.091545-19.12542 0.241699-4.19465 0.155935-8.399695 0.181924-12.596944 1.31765-48.217682 12.032979-94.039164 36.499172-135.923288 11.604158-19.871309 25.86181-37.736255 47.339248-48.196891 93.009993 34.167944 190.175652 42.778151 288.084601 47.204105 64.081463 2.897791 128.214904 5.270601 191.877942 14.169288 66.03065 9.233947 129.789847 26.178877 190.131471 54.993055 4.210243 2.006363 8.121611 4.639064 12.17592 6.980687-4.402563 5.010709-10.393064 3.503338-15.772819 3.440965-86.005915-0.987588-153.6297 36.275665-208.531794 100.011472-23.63194 27.428956-48.251468 53.971681-72.067931 81.242103a2710.224601 2710.224601 0 0 1-147.548237 155.942735c-25.656495 25.058745-52.674822 48.384013-81.665727 69.453421-3.129094 2.27665-6.661021 4.046512-8.521844 7.697989" fill="#D71937" p-id="7021"></path><path d="M402.296548 622.329791c-3.399382-4.730026 1.444997-5.792983 3.685262-7.399113 60.671686-43.425281 110.999687-98.09867 162.57257-151.18672 38.910965-40.054488 75.238608-82.645517 112.080836-124.667384 19.876507-22.67294 39.331989-45.748712 61.500739-66.183986 39.693239-36.592732 86.351571-58.428821 140.159521-65.817539 18.127437-2.489761 36.117131-1.034368 54.109424-2.533943 35.644128 15.765022 67.106601 38.120895 100.572837 63.075683-16.963122 1.208496-31.20518 1.595734-45.280907 3.334409-72.426581 8.94027-137.066811 38.786217-199.043152 75.337367-83.770848 49.405386-159.776136 109.822378-237.22902 168.170633-45.80069 34.503204-91.684546 68.879061-139.821662 100.118027-4.301205 2.791235-8.862302 5.179639-13.306448 7.752566" fill="#C41633" p-id="7022"></path><path d="M169.701395 717.88932c-9.174172 1.777658-12.516378-1.959582-13.202492-11.318278-2.687279-36.818838-6.133441-73.585698-9.293722-110.36815-3.513734-5.642246-4.756016-11.93682-5.34597-18.426312 0.805664-7.69279-3.939956-15.593494 0.803065-23.145943-0.878433-38.385984-5.753999-76.462697-8.875297-114.669356-7.097639-86.78559-14.754044-173.529597-22.236322-260.281402-0.704306-8.155397-1.795851-16.27441-2.70807-24.409015a11.24031 11.24031 0 0 1-2.757449-5.431734c-0.842049-6.01649-0.007797-12.217502-1.933594-18.135233-0.106556-4.132276-1.252677-8.423086 1.907604-12.03298-2.289645-26.883183-4.693642-53.763768-6.770175-80.665144-0.415827-5.366761-3.544921-12.719093 6.349151-13.566339 7.349733-5.834566 15.019134-7.755164 23.317471-1.886813l6.323162 2.310436c5.92033 13.033562 4.168661 27.234037 5.260205 40.797778 4.519514 56.289914 9.584801 112.533047 14.294036 168.807368 4.607877 54.972264 9.551015 109.928934 14.268047 164.8934 4.724829 54.967066 9.415871 109.941928 14.015952 164.91939 3.700856 44.241341 7.204194 88.503473 11.287091 132.711029 0.701707 7.609625 1.48658 14.891787-7.354931 18.55106-5.665636 1.840032-11.274096 4.620872-17.347762 1.346238" fill="#D71937" p-id="7023"></path><path d="M184.125377 715.030513c2.598916-2.921181 8.768741-2.567729 7.760362-8.815522-3.420173-21.196756-4.402563-42.611821-5.826769-64.000897-0.995385-14.933369-3.097907-29.783573-4.454542-44.701349-3.446162-37.962361-6.874132-75.927321-10.073397-113.907874-2.053143-24.35184-3.448761-48.760855-5.561679-73.107497-3.103105-35.833849-6.679213-71.626115-9.862885-107.452167-2.053143-23.05758-3.651476-46.154143-5.650043-69.214321-3.251243-37.549133-6.842945-75.067079-9.94605-112.62401-2.572926-31.135009-4.652059-62.309003-6.861137-93.4726-0.038984-0.582157 1.060358-1.24748 1.62952-1.871219 5.7514-0.485997 11.123359 0.98239 15.897567 3.984138 32.621589 20.536631 67.322311 36.873415 102.958642 51.346776-7.747368 11.991397-21.014832 18.028678-29.996684 29.318367-24.601335 30.937492-37.416589 66.378904-44.898867 104.2581-3.230452 16.357575-6.393332 32.865887-5.48891 49.743246-1.338442 0.553569-2.554734 0.236501-3.201864-0.98239-0.779675-1.468387-0.7199-3.079715-0.498992-3.477349 0.925214 5.151051-0.031187 11.627549 3.706054 17.313976l0.036385 20.809517c0.16893 4.464937-0.589954 9.002644 1.026572 13.361025 0.914818 3.209661-0.979791 6.848143 1.507371 9.816105-1.444997 9.748533 2.56513 18.98248 2.676883 28.582874-1.104539 4.683246-0.582157 9.049424 2.494959 12.924408-4.503921 6.946902-1.691894 13.860017 0.093561 20.77833 0.831653 6.03988-2.209078 12.617735 2.518349 18.114442 0.795268 8.688175-1.873818 17.724605 2.61191 26.041135-3.47475 6.874132 1.585339 13.740467 0.015594 20.614599-0.563965 7.102836 0.524981 13.99776 2.61191 20.765336-0.849845 7.781153 0.727696 15.559708 0.005198 23.338262 4.366178 6.291975 0.865439 14.514944 5.114666 20.832908-2.053143 6.874132-2.131111 13.740467 0.057176 20.601604 0.434019 6.957297-1.424206 14.203074 2.61191 20.705561-1.299458 7.188601-0.946005 14.169288 2.570328 20.760138 0.514585 7.843527-1.595734 15.965139 2.510552 23.424027-2.125913 6.868934-2.032352 13.727472 0.064973 20.583412l0.020791 20.728951c2.596317 3.568311 0.252095 7.937088 1.897209 11.656137 0.553569 3.887978 1.512569 7.752565 0.699108 11.723708 1.502173 5.972308 3.420173 11.890039 2.54174 18.197608-0.077967 5.301788-1.359233 10.798494 2.583322 15.421965l0.041583 12.578752-17.576467 5.338173c-2.801631 2.913384-5.590268 2.905588-8.368508-0.036385" fill="#C41633" p-id="7024"></path><path d="M184.125377 715.030513l8.365909 0.038983c4.974325 51.736614 9.940852 103.475826 14.925573 155.21244 2.760048 28.653045 5.553883 57.298293 8.332123 85.94874l1.746471 25.656495c-14.798226 3.027737-23.299279-2.20388-25.175695-15.499933l-0.761483-10.117579c-5.457723-59.811445-10.902451-119.628087-16.373168-179.44213-1.795851-19.647802-3.656674-39.295605-5.486311-58.938209l14.423982-2.858807" fill="#714625" p-id="7025"></path><path d="M128.952996 23.552621l-23.32007 1.886813c0.213111-7.518663-4.802796-15.229646 0.844648-22.545593 6.180221 1.000583 11.934221-1.580141 17.932518-2.128512 5.712417 6.75978 1.982973 15.401174 4.542904 22.787292" fill="#845532" p-id="7026"></path><path d="M106.059148 119.673516l0.532778 12.448806c1.083748 4.597482 3.466953 10.070798-5.379755 7.942286 0.582157-6.939105-0.28848-13.696285-2.546938-20.279339l7.393915-0.111753" fill="#E4A305" p-id="7027"></path><path d="M124.410092 0.767928c-5.80078 2.190886-11.227316 7.542053-17.932518 2.128512 5.553883-4.264821 11.799077-2.73146 17.932518-2.131111" fill="#673F22" p-id="7028"></path><path d="M142.659677 554.628038c1.205897 7.705785 3.279832 15.325806 2.274052 23.249899-8.282744 6.476498-17.989694 3.129094-27.088498 3.981539-7.47708 1.325447-14.47596-4.652059-22.085585-1.408612-7.030067-0.769279-13.839226 1.1981-20.126003 3.466953-8.399695 3.030336-9.901869-0.14294-11.370256-7.586234-6.019089-30.578841-5.839763-31.467671 24.980777-28.923333 17.883139 1.473585 35.61554 4.756016 53.415513 7.219788" fill="#E6B701" p-id="7029"></path><path d="M145.201417 595.802659c-22.202536 8.680378-42.957477 19.959672-61.126496 35.475198-5.2732 4.498723-7.968275 3.97894-12.162925-1.385222-19.847919-25.388807-18.374334-29.913519 13.735269-38.931756 16.222431-3.695658 32.330511-8.547834 49.270243-6.299772 6.227002 0.823856 13.97177 0.883631 10.28131 11.138953" fill="#D6A80A" p-id="7030"></path><path d="M108.608685 150.556431l0.236501 4.714433c-22.836672 7.170408-43.336918 18.756374-61.412377 34.232917-7.224985 6.18282-11.378053 5.46552-15.619483-2.3988-2.032352-3.771027-4.667652-7.209392-6.816955-10.923242-8.090424-13.956177-8.056638-13.976968 6.201012-20.734149 1.834834-1.611328 4.062105-2.261057 6.406327-2.624905 18.421114-2.46897 36.566743-7.349733 55.395887-6.211408 5.46552 0.332661 11.167541-0.38464 15.609088 3.947753" fill="#D6A90A" p-id="7031"></path><path d="M145.201417 595.802659c0.660125-7.937088-4.831384-7.069051-10.083793-7.54985-16.651253-1.528162-32.891876 3.560514-49.470359 2.705471l18.065063-8.108617c3.295425-3.776224 8.376305-2.650894 12.36564-4.522113l28.855761-0.449613c0.441816 6.151633 3.937357 11.918627 2.271452 18.324955l-1.05516 0.04678-0.951203-0.449612z" fill="#D19318" p-id="7032"></path><path d="M116.080567 578.330149c-3.446162 3.360398-7.994265 3.698257-12.370838 4.516915-2.053143-2.778241-5.226419-1.837433-7.947484-2.3962 6.479097-3.521531 13.431196-2.510553 20.318322-2.120715" fill="#F9F2E5" p-id="7033"></path><path d="M35.485594 155.317644l-4.288211 0.129946-2.858807-2.666488c4.509119-2.30004 8.649191-6.723395 14.299234-2.494959-0.135144 4.872967-4.579289 3.622888-7.152216 5.031501" fill="#F6EBCE" p-id="7034"></path><path d="M192.319758 966.387238c2.669086 14.462966 15.863781 11.830264 25.178294 15.499933 3.240848 4.563696 8.00466 5.455124 13.142717 5.455124 5.31998-2.518349 10.650356-2.409195 15.983331-0.046781l7.276964 0.418426c0.181924 4.849577-2.505355 3.578707-5.145853 2.414392-24.286867 8.030649-44.607788-8.755747-67.293723-10.749115-5.348568-3.88278-13.488372 3.04333-17.864946-4.607877 6.762379-0.14294 13.563741-0.787471 20.27674-0.285881 6.442712 0.483398 8.098221-2.835417 8.446476-8.098221" fill="#A9AAAD" p-id="7035"></path><path d="M246.6241 987.295514l-15.983331 0.046781c10.289107-5.894341 15.299816-19.037057 28.59327-20.793924 3.804813-0.748488 8.290541-4.231035 10.211139 2.552135-8.72456 1.021374-16.601873 3.877582-23.499395 9.613389-4.334991 3.604696-3.440964 6.029484 0.675718 8.581619" fill="#ABACB0" p-id="7036"></path><path d="M163.596542 974.77134c4.98472 5.29659 12.906215-0.782274 17.867545 4.610476-12.207107 0.524981-24.507775-0.969396-36.712282 2.167496 5.696823-4.459739 11.780885-7.061254 18.844737-6.777972" fill="#AAACAF" p-id="7037"></path><path d="M269.445178 969.100506c-2.679482-3.747636-6.751983-1.918-10.211139-2.549536 6.507685-4.280414 12.633329-3.118699 18.977282 0.951203-2.905588 2.799032-5.951517 1.447596-8.766143 1.598333" fill="#C4C8CC" p-id="7038"></path><path d="M248.755211 990.128332l5.145853-2.416991c3.518932 1.156517 7.157414 2.131111 10.85567 8.376305-6.642828-3.755433-11.991397-2.266254-16.001523-5.959314" fill="#B4B6BA" p-id="7039"></path><path d="M35.485594 155.317644l7.152216-5.031501c18.946095-6.725994 38.463952-10.182551 58.574361-10.224134 5.522696-0.11955 5.0341-4.311601 5.379755-7.939687 3.861989 5.795582 1.840032 12.235695 2.019358 18.434109-24.598737-1.840032-48.79724 2.458574-73.12569 4.761213" fill="#D19217" p-id="7040"></path><path d="M431.201688 409.065372c5.857956-4.644262 12.667115-4.225837 18.517274-6.611642 38.619886-15.74683 53.311557-62.581889 29.570462-97.698436-6.809159-10.068199-11.546982-19.484071-10.265717-31.867904 0.457409-4.444146-1.621723-9.236546-2.934176-13.753462-1.694493-5.821571-4.704037-8.43608-11.484608-5.842362-8.516647 3.256441-17.028095 6.44791-23.972398 12.370839-4.454541 3.794417-9.213156 4.880764-14.395393 3.664471-18.88632-4.436349-37.873998-3.178474-56.334096 0.946005-9.475646 2.115517-16.72922 0.405431-24.349241-4.00233-1.866021-1.081149-3.784021-2.112918-5.785186-2.897791-7.443294-2.918582-15.817001-10.18515-22.756105-4.753417-7.716181 6.03988-4.867769 17.32957-2.27665 25.445983 2.796433 8.753148 1.419008 14.987947-2.801631 22.628759-14.226464 25.757853 1.84523 82.39862 40.439127 95.408792 9.340503 3.149886 18.904512 5.642246 29.497693 8.768741-5.403146 6.609042 0.844648 19.536049-12.539768 21.758122-14.47596 2.401398-27.743424 0.184523-36.556348-13.220684-7.258771-11.040194-16.419949-18.137832-31.064838-16.238025 13.992562 9.582202 20.614599 24.874222 30.98947 37.099521 8.534839 10.052606 20.562621 12.217502 33.076399 10.795896 11.149348-1.268271 15.224448 2.702872 15.24264 14.257651 0.036385 22.275306-2.539141 24.11014-23.268091 14.553927-54.075638-24.936596-88.077251-66.524444-102.311513-124.012457-19.372317-78.237757 32.761931-149.897658 112.93588-159.266749 58.787472-6.868934 108.777614 8.927275 148.099208 52.557871 63.915132 70.924408 47.539365 185.583368-39.555496 229.003452-16.287404 8.119012-19.335932 5.603262-21.412466-12.479993-2.224672-19.406103-1.361832-39.815388-14.304432-56.614778" fill="#7E1021" p-id="7041"></path><path d="M189.354395 492.516553c-3.266837-7.778555-4.613075-15.557109-0.005198-23.338262 3.217458 7.778555 4.662455 15.557109 0.005198 23.338262" fill="#AF1839" p-id="7042"></path><path d="M184.109783 401.754622c-8.737554-4.93794-5.860555-11.495004-2.518349-18.114442 4.904154 5.473316 1.639916 12.084958 2.520948 18.114442" fill="#B11838" p-id="7043"></path><path d="M199.708475 575.414165c-9.556213-5.844961-5.48891-13.37402-2.572927-20.760138 2.045347 6.772774 3.204463 13.657302 2.572927 20.760138" fill="#B01838" p-id="7044"></path><path d="M173.755703 277.367921c-8.438679-4.244029-3.622888-11.877044-4.262222-18.314559l4.257024 5.460322 0.005198 12.854237" fill="#A91838" p-id="7045"></path><path d="M210.02617 697.149973c-8.992248-3.778823-5.348568-9.675763-2.585921-15.424564 3.183672 4.756016 2.739257 10.11498 2.585921 15.424564" fill="#B21837" p-id="7046"></path><path d="M173.760901 311.148626c-3.732043-4.332392-3.838598-8.659587 0.033786-12.971188 3.794417 2.754851 2.294843 6.798763 2.518349 10.421652a7.328942 7.328942 0 0 1-2.552135 2.546937" fill="#B11838" p-id="7047"></path><path d="M181.497873 362.86185c-8.072232-2.910786-6.047677-7.770758-2.49236-12.924408 2.339024 4.017924 2.858807 8.384102 2.494959 12.924408" fill="#AA1838" p-id="7048"></path><path d="M202.284 619.421604c-2.965363-6.853341-5.860555-13.706681-0.062374-20.583412l0.062374 20.583412" fill="#A21839" p-id="7049"></path><path d="M194.528836 533.948466c-3.976341-6.855939-4.046512-13.724874-0.059775-20.601604l0.057176 20.601604" fill="#A01839" p-id="7050"></path><path d="M204.901108 663.5304c-1.780257-3.248645-3.022539-6.629834-2.552135-10.429448 0.914818-0.831653 1.143523-2.354618 2.624905-2.617108 3.659273 4.366178 3.828203 8.719362-0.07277 13.046556" fill="#B21838" p-id="7051"></path><path d="M186.737287 448.410356c-3.898373-6.871533-4.056907-13.743066-0.015594-20.619797l0.142941 7.697988c1.712685 4.334991 1.910203 8.654389-0.129946 12.947798v-0.025989z" fill="#9E1839" p-id="7052"></path><path d="M173.760901 311.148626l2.552135-2.552135 0.015594 12.760676c-3.778823-2.669086-2.13371-6.700005-2.567729-10.208541" fill="#9E183A" p-id="7053"></path><path d="M186.732089 448.436345l0.129946-12.947798c3.604696 4.353184 3.846395 8.67518-0.129946 12.947798" fill="#C41633" p-id="7054"></path><path d="M204.971279 650.483844l-2.624905 2.619707c-0.015593-4.3142-0.025989-8.633598-0.044181-12.952996 3.937357 2.656092 2.211677 6.777972 2.669086 10.333289" fill="#9F1839" p-id="7055"></path><path d="M154.49254 86.794634c5.759197 5.29659 3.035533 11.245508 3.025138 16.669445-3.505937-4.743021-5.782587-9.722543-3.025138-16.669445" fill="#A91738" p-id="7056"></path><path d="M161.987813 174.445663c5.663037 5.314782 3.256441 10.091589 4.787203 17.386746-6.304969-6.317964-6.432316-10.894654-4.787203-17.386746" fill="#A31839" p-id="7057"></path><path d="M166.47614 232.752336v-17.072277l1.317651-0.036385v17.241206l-1.317651-0.129945z" fill="#A01839" p-id="7058"></path><path d="M158.915895 147.830168v-18.036474l1.278666-0.005198v18.036474l-1.278666 0.005198" fill="#9F1839" p-id="7059"></path><path d="M150.534392 59.729527v-15.151678l2.562531-0.077968v12.669714c1.026572 2.736658-0.259892 3.157683-2.562531 2.559932" fill="#9E1839" p-id="7060"></path><path d="M150.534392 59.729527c0.857642-0.852444 1.707488-1.707488 2.562531-2.559932 2.313035 1.858225 3.680065 4.644262 0.847246 6.260788-2.656092 1.517767-3.082314-1.62952-3.409777-3.700856" fill="#AC1737" p-id="7061"></path></svg>