<?xml version="1.0" standalone="no"?><!DOCTYPE svg PUBLIC "-//W3C//DTD SVG 1.1//EN" "http://www.w3.org/Graphics/SVG/1.1/DTD/svg11.dtd"><svg t="1581776435852" class="icon" viewBox="0 0 1024 1024" version="1.1" xmlns="http://www.w3.org/2000/svg" p-id="10049" xmlns:xlink="http://www.w3.org/1999/xlink" width="200" height="200"><defs><style type="text/css"></style></defs><path d="M348.16 894.464c-165.888-1.024-299.52-135.168-298.496-300.032C50.176 431.104 184.32 298.496 348.16 299.008c165.376 0.512 298.496 136.704 297.472 305.152-0.512 159.232-136.192 291.328-297.472 290.304z m215.04-315.904c-17.408 72.192-55.808 128-116.224 167.424-60.928 39.424-127.488 49.664-200.704 37.376 53.248 47.104 151.04 57.856 229.376 6.656 69.12-45.568 110.08-132.608 87.552-211.456zM833.024 242.688c10.752 7.168 20.48 13.312 29.696 19.456-38.4 60.416-122.88 60.928-163.328 2.56-7.168-10.24-12.8-20.992-20.48-30.72-29.696-36.864-80.384-31.744-103.424 11.264 12.8 7.68 26.112 15.36 38.912 23.552 21.504 13.312 26.624 30.72 13.824 52.736-9.728 17.408-20.48 34.816-32.256 53.76-46.08-51.2-101.888-83.968-169.472-101.376 13.312-22.016 24.576-42.496 37.888-61.952 9.728-13.824 26.112-16.384 43.008-8.192 10.752 5.12 20.992 11.776 32.768 18.432 4.096-5.632 8.192-11.264 12.288-16.384 39.936-50.176 114.688-50.688 154.624-0.512 6.656 8.192 12.288 16.896 17.92 25.6 29.696 43.52 69.12 48.128 108.032 11.776zM948.224 305.664c-23.04-0.512-32.256-6.656-31.744-20.992 0.512-12.8 8.192-18.432 20.48-17.92 23.04 0.512 34.816 7.68 33.792 21.504-1.024 13.824-9.216 18.432-22.528 17.408zM871.424 149.504c-1.024 28.16-10.24 40.96-24.064 39.424-12.288-1.536-17.92-9.728-17.408-21.504 0.512-20.48 10.752-35.328 24.064-31.744 7.68 2.048 13.824 10.752 17.408 13.824zM896 215.552c2.56-16.896 19.968-33.28 33.792-32.768 11.264 0.512 18.432 6.144 17.92 18.432 0 11.264-17.92 28.16-30.208 26.624-7.68-1.536-14.336-8.192-21.504-12.288z" fill="#000000" p-id="10050"></path></svg>